<?xml version="1.0" encoding="UTF-8"?>
<svg version="1.1" xmlns="http://www.w3.org/2000/svg" width="474" height="474">
<path d="M0 0 C156.42 0 312.84 0 474 0 C474 156.42 474 312.84 474 474 C317.58 474 161.16 474 0 474 C0 317.58 0 161.16 0 0 Z " fill="#FCFCFC" transform="translate(0,0)"/>
<path d="M0 0 C6.29663774 4.26869477 11.54366626 9.8689819 16.86328125 15.26171875 C18.59432531 16.96702238 20.33386501 18.54831013 22.21484375 20.08203125 C24.99244711 22.35461582 27.44348262 24.7796607 29.96484375 27.33203125 C30.72623154 28.09563965 31.48761932 28.85924805 32.27207947 29.64599609 C33.06006424 30.43699707 33.84804901 31.22799805 34.65991211 32.04296875 C39.12380171 36.5228458 43.58988491 41.0005245 48.05759335 45.47659302 C50.75090703 48.17513107 53.44327305 50.87460105 56.13354492 53.57617188 C58.75011442 56.20365365 61.36916181 58.82864236 63.98990059 61.45196533 C64.98225166 62.4461521 65.97372802 63.44121282 66.96427727 64.43719482 C71.80779055 69.30623608 76.64037045 73.99694065 81.96484375 78.33203125 C83.65244963 79.97749226 85.31890076 81.64489544 86.96484375 83.33203125 C87.91769068 84.28754833 88.8719398 85.24166866 89.82739258 86.19458008 C97.20654297 93.57373047 104.58569336 100.95288086 111.96484375 108.33203125 C108.10540226 115.06317662 104.22319824 121.71996314 99.77734375 128.08203125 C99.08088745 129.08472046 99.08088745 129.08472046 98.37036133 130.10766602 C82.01906449 153.4850175 63.75198901 174.79463458 43.48046875 194.83300781 C40.59321536 197.68863536 37.71771367 200.55359217 34.89453125 203.47265625 C30.12098111 208.37325906 25.11708338 212.74773955 19.77734375 217.01953125 C16.94954923 219.34460674 14.26996857 221.77639188 11.58984375 224.26953125 C6.19436109 229.22175896 0.52013072 233.69884568 -5.34472656 238.06982422 C-6.9857284 239.29512455 -8.61619447 240.53342598 -10.24609375 241.7734375 C-18.50678066 247.99727573 -27.06032348 253.77903 -35.66015625 259.51953125 C-36.22502747 259.89730713 -36.78989868 260.27508301 -37.37188721 260.66430664 C-49.21434961 268.57275178 -61.22044398 276.05923592 -73.78515625 282.76953125 C-74.82591309 283.32809814 -75.86666992 283.88666504 -76.93896484 284.4621582 C-79.01863554 285.57735556 -81.09917596 286.69093285 -83.18066406 287.80273438 C-85.65680635 289.12932993 -88.12511799 290.46877038 -90.58984375 291.81640625 C-98.52731738 296.13240754 -106.60111525 300.12892564 -114.78515625 303.95703125 C-115.72697754 304.40780029 -116.66879883 304.85856934 -117.63916016 305.32299805 C-118.52780762 305.73074463 -119.41645508 306.13849121 -120.33203125 306.55859375 C-121.11932617 306.92549316 -121.90662109 307.29239258 -122.71777344 307.67041016 C-125.53878878 308.47582014 -127.24549651 308.16110441 -130.03515625 307.33203125 C-131.921875 306.0546875 -131.921875 306.0546875 -133.72265625 304.39453125 C-134.74359375 303.45673828 -134.74359375 303.45673828 -135.78515625 302.5 C-140.82375248 297.64510259 -145.73418923 292.66744388 -150.64453125 287.68359375 C-153.07193255 285.22340858 -153.07193255 285.22340858 -156.09765625 282.83203125 C-158.84003792 280.49808941 -160.80622061 278.13617608 -163.03515625 275.33203125 C-164.68518453 273.97816189 -166.35259495 272.64524983 -168.03515625 271.33203125 C-170.89681707 268.61712227 -173.50961837 265.7924257 -176.03515625 262.76953125 C-178.46710771 259.88975242 -181.04070233 257.63545734 -184.03515625 255.33203125 C-186.85519946 252.65660564 -189.43054778 249.88058495 -191.91015625 246.89453125 C-194.95452294 243.2793458 -198.38464623 240.31476505 -202.03515625 237.33203125 C-199.8691959 230.31604671 -197.06741575 223.86184489 -193.84765625 217.26953125 C-193.11192383 215.75117676 -193.11192383 215.75117676 -192.36132812 214.20214844 C-191.37602805 212.17294548 -190.38797002 210.14507903 -189.39697266 208.11865234 C-188.23032603 205.73139802 -187.07414168 203.339523 -185.921875 200.9453125 C-172.55458742 173.41116032 -155.65045345 147.49364585 -137.16796875 123.1484375 C-135.73100863 121.25091323 -134.3093614 119.34170678 -132.90234375 117.421875 C-127.38601248 109.91847817 -121.47366302 102.84721641 -115.35107422 95.83886719 C-114.26326184 94.5932312 -113.18158819 93.34223718 -112.1015625 92.08984375 C-110.42850244 90.15599495 -108.7365477 88.24099987 -107.03515625 86.33203125 C-105.94654297 85.10419922 -105.94654297 85.10419922 -104.8359375 83.8515625 C-98.73437248 77.07723686 -92.3923753 70.55526801 -85.97265625 64.08203125 C-85.12670898 63.22311279 -84.28076172 62.36419434 -83.40917969 61.47924805 C-82.61415039 60.68301025 -81.81912109 59.88677246 -81 59.06640625 C-80.28448975 58.34678711 -79.56897949 57.62716797 -78.83178711 56.88574219 C-77.03515625 55.33203125 -77.03515625 55.33203125 -75.03515625 55.33203125 C-75.03515625 54.67203125 -75.03515625 54.01203125 -75.03515625 53.33203125 C-74.37515625 53.33203125 -73.71515625 53.33203125 -73.03515625 53.33203125 C-73.03515625 52.67203125 -73.03515625 52.01203125 -73.03515625 51.33203125 C-70.6198644 48.74989358 -67.75347452 46.58512107 -65.03515625 44.33203125 C-64.5035791 43.88956055 -63.97200195 43.44708984 -63.42431641 42.99121094 C-47.57248943 29.83237555 -31.49204973 16.83982226 -13.72314453 6.34863281 C-12.11413845 5.37959878 -10.5401411 4.35312961 -8.96875 3.32421875 C-8.08316406 2.74929687 -7.19757813 2.174375 -6.28515625 1.58203125 C-5.5478125 1.0921875 -4.81046875 0.60234375 -4.05078125 0.09765625 C-2.03515625 -0.66796875 -2.03515625 -0.66796875 0 0 Z " fill="#020202" transform="translate(319.03515625,46.66796875)"/>
<path d="M0 0 C-1.35646792 3.72300066 -3.04826413 6.79676968 -5.2734375 10.0703125 C-6.25425293 11.52377075 -6.25425293 11.52377075 -7.25488281 13.0065918 C-7.95452148 14.0356665 -8.65416016 15.06474121 -9.375 16.125 C-23.46897645 37.08151331 -36.94675519 58.32536077 -48.04296875 81.046875 C-51.51144773 88.12452009 -55.28422025 95.05011566 -59 102 C-64.01609333 99.10325238 -68.5990824 95.68696048 -73.2578125 92.25390625 C-85.37057298 84.38536737 -100.70045594 83.76316456 -114.58251953 86.51123047 C-131.97836337 91.17736795 -148.73740447 101.53972245 -163.98828125 110.890625 C-166 112 -166 112 -168 112 C-168 111.34 -168 110.68 -168 110 C-167.34 110 -166.68 110 -166 110 C-165.66742188 108.78376953 -165.66742188 108.78376953 -165.328125 107.54296875 C-163.652697 103.07351816 -161.31898082 99.31933398 -158.75 95.3125 C-157.9602478 94.0737915 -157.9602478 94.0737915 -157.15454102 92.81005859 C-148.08894387 78.77531874 -138.01103892 65.55581762 -127 53 C-126.34386719 52.23300781 -125.68773437 51.46601563 -125.01171875 50.67578125 C-121.20145058 46.24032495 -117.17359943 42.09255866 -113 38 C-112.21625 37.195625 -111.4325 36.39125 -110.625 35.5625 C-81.01015137 6.65276681 -41.2794609 -13.7598203 0 0 Z " fill="#030303" transform="translate(168,157)"/>
<path d="M0 0 C1.65969333 5.06808044 2.29677283 9.60639126 2.265625 14.953125 C2.26753845 15.69399353 2.2694519 16.43486206 2.27142334 17.19818115 C2.27277669 18.75793805 2.26914001 20.31770653 2.26074219 21.87744141 C2.25009165 24.22975841 2.26063457 26.5813011 2.2734375 28.93359375 C2.28611595 40.27225725 1.47004038 50.65167199 -3.0625 61.1875 C-3.36414063 61.90236572 -3.66578125 62.61723145 -3.9765625 63.35375977 C-8.99731598 74.92868004 -15.35595781 85.95981214 -23 96 C-23.59425781 96.79792969 -24.18851562 97.59585938 -24.80078125 98.41796875 C-35.11322163 111.65393591 -47.62917206 123.8953285 -61 134 C-62.48196094 135.14819217 -63.96371167 136.29665568 -65.4453125 137.4453125 C-79.13167556 147.96478375 -93.3920604 157.3553286 -108.3828125 165.9140625 C-110.16420276 166.91737315 -110.16420276 166.91737315 -111 169 C-111.99 169 -112.98 169 -114 169 C-112.60028668 166.12867863 -111.07975349 163.3665687 -109.4609375 160.61328125 C-89.15132034 126.71886273 -89.15132034 126.71886273 -86.703125 88.3984375 C-89.60361729 77.90258828 -95.33232885 69.46463216 -102 61 C-99.16297765 57.89881825 -96.55396424 56.05597352 -92.765625 54.2578125 C-91.72825195 53.75596436 -90.69087891 53.25411621 -89.62207031 52.73706055 C-88.50928711 52.20508057 -87.39650391 51.67310059 -86.25 51.125 C-73.98094552 45.13383493 -62.23005625 38.48498998 -50.50732422 31.48193359 C-47.30852602 29.59130993 -44.06490775 27.79667755 -40.8125 26 C-27.96167036 18.6926655 -15.61620446 10.21777629 -3.86328125 1.2578125 C-2 0 -2 0 0 0 Z " fill="#030303" transform="translate(317,305)"/>
<path d="M0 0 C7.26 0 14.52 0 22 0 C22 8.58 22 17.16 22 26 C21.34 26 20.68 26 20 26 C20.02320313 27.18207031 20.04640625 28.36414063 20.0703125 29.58203125 C20.06528967 33.40356889 19.62063394 36.92933353 18.875 40.6875 C18.74593262 41.34049072 18.61686523 41.99348145 18.48388672 42.66625977 C18.17862529 44.19819465 17.86920831 45.72930475 17.55664062 47.25976562 C16.90502453 50.4675459 16.27384626 53.679164 15.640625 56.890625 C12.21468197 74.06417602 8.32439695 90.6413643 2 107 C-2.16533368 105.36170963 -4.96158915 102.31971435 -8.05371094 99.20507812 C-8.9470388 98.31700722 -8.9470388 98.31700722 -9.8584137 97.41099548 C-11.82212334 95.45607647 -13.77844134 93.49394678 -15.734375 91.53125 C-17.09600044 90.17097161 -18.45792268 88.81099024 -19.82012939 87.45129395 C-22.67127498 84.60309571 -25.51877419 81.75131384 -28.36376953 78.89697266 C-32.01797671 75.23134958 -35.68111714 71.57480606 -39.34701157 67.92087555 C-42.15921181 65.11588588 -44.96665136 62.30617049 -47.77265167 59.49497986 C-49.12204247 58.14425146 -50.47292995 56.79501662 -51.82530975 55.44728088 C-53.70969948 53.56794552 -55.58760003 51.68236178 -57.46386719 49.79492188 C-58.02797806 49.23485947 -58.59208893 48.67479706 -59.17329407 48.09776306 C-63 44.228531 -63 44.228531 -63 42 C-63.59941406 41.73832031 -64.19882812 41.47664063 -64.81640625 41.20703125 C-67.13061764 39.92779812 -68.29659445 38.73749558 -69.9375 36.6875 C-72.47511787 33.60928684 -75.14048325 30.78802883 -78 28 C-79.10547881 26.89714703 -80.20962551 25.79295733 -81.3125 24.6875 C-82.199375 23.800625 -83.08625 22.91375 -84 22 C-83.505 20.515 -83.505 20.515 -83 19 C-80.91235352 18.02026367 -80.91235352 18.02026367 -78.12890625 17.16796875 C-77.09290283 16.84723389 -76.05689941 16.52649902 -74.98950195 16.19604492 C-73.85859131 15.8632251 -72.72768066 15.53040527 -71.5625 15.1875 C-70.39614014 14.83856689 -69.22978027 14.48963379 -68.02807617 14.13012695 C-46.13805407 7.70519463 -22.9926418 1.51763689 0 2 C0 1.34 0 0.68 0 0 Z " fill="#030303" transform="translate(452,0)"/>
<path d="M0 0 C10.21101671 6.101363 18.01749385 14.35656345 21.5859375 25.89453125 C23.57788013 36.02337158 21.76120407 46.78097941 16.421875 55.609375 C14.72683297 57.88470169 12.9593287 59.94934666 11 62 C10.4534375 62.57492188 9.906875 63.14984375 9.34375 63.7421875 C1.18379297 71.47875054 -9.63033649 73.46727291 -20.5234375 73.33203125 C-31.01256022 72.3302611 -39.12723807 66.7287999 -46 59 C-53.18945303 49.09585724 -55.01646289 40.17276295 -54 28 C-51.58070921 17.74919059 -46.07363757 9.68447676 -38 3 C-26.59190724 -3.86175654 -12.36818366 -6.00338785 0 0 Z " fill="#F8F8F8" transform="translate(326,132)"/>
<path d="M0 0 C1.74121782 1.62186655 3.36419409 3.27572585 5 5 C6.32255338 6.33375963 7.64838453 7.66427297 8.9765625 8.99243164 C9.72083496 9.73993179 10.46510742 10.48743195 11.23193359 11.25758362 C14.59877705 14.63780154 17.96825863 18.01538441 21.33789062 21.39282227 C23.11352561 23.17350537 24.88826474 24.95508224 26.66210938 26.73754883 C29.23070903 29.31828698 31.80253254 31.8957742 34.375 34.47265625 C35.55956787 35.66496605 35.55956787 35.66496605 36.76806641 36.88136292 C40.37025552 40.48391759 43.94136248 43.90491378 48 47 C50.84534021 49.69942533 53.46591314 52.5122403 56 55.5 C60.54097537 60.84570519 65.61331613 65.44786559 70.859375 70.0859375 C74.33805394 73.1964351 77.4941141 76.3773712 80.4375 80 C83.06751232 83.07903881 85.8625034 85.45078401 89 88 C92.63374863 91.22999878 94.67717284 93.08039487 95 98 C93.78515625 101.11328125 93.78515625 101.11328125 92.0625 104.3125 C91.49660156 105.38113281 90.93070312 106.44976562 90.34765625 107.55078125 C89.90292969 108.35902344 89.45820313 109.16726562 89 110 C86.21388076 108.72747129 84.16803426 107.41676871 82.00904846 105.2495575 C81.44702728 104.69028564 80.8850061 104.13101379 80.30595398 103.55479431 C79.70169083 102.94334061 79.09742767 102.3318869 78.47485352 101.7019043 C77.82881165 101.05615448 77.18276978 100.41040466 76.51715088 99.74508667 C74.38296107 97.6095039 72.25594589 95.46692123 70.12890625 93.32421875 C68.64488221 91.83646234 67.16041433 90.34914855 65.67552185 88.86225891 C61.7652908 84.94439148 57.86109744 81.02056057 53.95812988 77.09545898 C49.9958577 73.11279498 46.0279864 69.13571839 42.06054688 65.15820312 C35.64642787 58.72650528 29.23575578 52.29139586 22.82957458 45.85179138 C19.55770579 42.56318027 16.28168166 39.2788268 13 36 C3.66666667 26.66666667 -5.66666667 17.33333333 -15 8 C-12.40375929 1.942105 -6.49219748 -1.27021255 0 0 Z " fill="#060606" transform="translate(351,29)"/>
<path d="M0 0 C5.48251273 2.42001538 9.31889683 6.53948715 12.75 11.3828125 C14.88549204 17.78928863 14.44365722 23.66131995 11.5625 29.7578125 C8.41395723 35.41632034 4.86769624 38.30576299 -1.25 40.3828125 C-7.99419604 41.12545124 -14.62935926 41.25959243 -20.59765625 37.7265625 C-24.37745813 34.65268107 -26.72182055 30.96735084 -28.25 26.3828125 C-28.71907873 20.62314092 -29.10706903 15.26836436 -26.6875 9.9453125 C-18.84507455 1.70071139 -11.85022565 -3.25058273 0 0 Z " fill="#040404" transform="translate(317.25,146.6171875)"/>
<path d="M0 0 C4.09772657 1.60982115 6.76485294 4.57605826 9.75 7.6875 C12.96127135 11.01345961 16.20286881 14.21485276 19.71777344 17.22216797 C23.91548563 20.87659418 27.8624619 24.73409837 31.78125 28.68359375 C32.48020386 29.38396255 33.17915771 30.08433136 33.89929199 30.80592346 C36.10191539 33.01408458 38.30101081 35.22572037 40.5 37.4375 C42.00497508 38.94749814 43.51018135 40.4572659 45.015625 41.96679688 C48.67975829 45.64187641 52.3407348 49.32007356 56 53 C54.79476952 56.61569144 53.92814436 56.94669545 50.6875 58.75 C49.90761719 59.19859375 49.12773437 59.6471875 48.32421875 60.109375 C45.58571634 61.15875071 44.71835669 60.94768994 42 60 C39.61943049 58.02286465 37.40827765 56.02158808 35.1875 53.875 C34.4877002 53.20355957 33.78790039 52.53211914 33.06689453 51.84033203 C30.90875074 49.75720751 28.76087899 47.66389179 26.61431885 45.56884766 C24.80051776 43.80613666 22.97759762 42.05315534 21.15380859 40.30078125 C17.5940021 36.87739418 14.05540424 33.4331099 10.52774048 29.97662354 C9.09270319 28.57566129 7.65190425 27.18057665 6.20541382 25.79144287 C4.1485254 23.81248587 2.11526029 21.81185192 0.0859375 19.8046875 C-0.54343216 19.20825439 -1.17280182 18.61182129 -1.82124329 17.99731445 C-3.42265393 16.38842943 -4.80679316 14.93116295 -6 13 C-5.92162418 7.28576698 -3.39294388 4.34992805 0 0 Z " fill="#090909" transform="translate(98,315)"/>
<path d="M0 0 C3.02362366 1.21477534 4.81222374 3.43866048 6.99232864 5.80044079 C5.42620671 9.64455826 2.97138743 11.95994288 -0.00767136 14.80044079 C-2.63476248 17.36185463 -5.07401843 19.88250165 -7.38267136 22.73794079 C-9.75267308 25.64454668 -12.43304519 27.96780749 -15.30845261 30.36294079 C-18.47291311 33.04000163 -21.30594498 35.88093726 -23.82017136 39.17544079 C-26.28332256 42.13122224 -29.00388658 44.47750213 -31.92173386 46.97231579 C-35.10641411 49.76338388 -38.04418698 52.77884887 -41.00767136 55.80044079 C-41.89454636 56.66669079 -42.78142136 57.53294079 -43.69517136 58.42544079 C-46.01986588 60.71800452 -46.01986588 60.71800452 -47.82017136 63.17544079 C-50.850946 66.81237036 -54.39396592 69.75685878 -58.00767136 72.80044079 C-59.18592493 71.89871611 -60.34998713 70.97842576 -61.50767136 70.05044079 C-62.48220261 69.28473766 -62.48220261 69.28473766 -63.47642136 68.50356579 C-65.00767136 66.80044079 -65.00767136 66.80044079 -65.00767136 62.80044079 C-63.16765442 60.55997263 -61.34072602 58.57706274 -59.28794479 56.54726696 C-58.67989502 55.93060162 -58.07184525 55.31393627 -57.44536972 54.6785841 C-55.42937957 52.63986097 -53.39895382 50.61626036 -51.36704636 48.59340954 C-49.96363752 47.18476895 -48.56075109 45.77560771 -47.15836716 44.36594677 C-44.21583847 41.41300066 -41.26592409 38.46768143 -38.31089401 35.52724743 C-34.51785203 31.75140722 -30.74555054 27.95558462 -26.97873688 24.15360069 C-24.08626765 21.23921341 -21.18224496 18.3365626 -18.27464676 15.43727589 C-16.87853217 14.04198364 -15.48628068 12.64281523 -14.09793472 11.23979282 C-12.15868187 9.28319576 -10.2042694 7.34314183 -8.24497604 5.40664196 C-7.67026062 4.82023434 -7.0955452 4.23382671 -6.50341415 3.62964916 C-2.52852248 -0.25133095 -2.52852248 -0.25133095 0 0 Z " fill="#0B0B0B" transform="translate(83.00767135620117,378.19955921173096)"/>
<path d="M0 0 C3.90669429 1.43828546 6.19713709 2.88570788 9 6 C7.5238612 9.41752271 5.60714303 11.64090609 2.98095703 14.26196289 C2.15314728 15.09284927 1.32533752 15.92373566 0.47244263 16.77980042 C-0.42338531 17.66844284 -1.31921326 18.55708527 -2.2421875 19.47265625 C-3.1621048 20.39211533 -4.08202209 21.3115744 -5.02981567 22.25889587 C-6.97529514 24.20281349 -8.9240804 26.14333288 -10.87548828 28.08129883 C-13.37106402 30.55989717 -15.86001879 33.04501491 -18.34673882 35.53249454 C-20.72576633 37.91118398 -23.1090304 40.28560388 -25.4921875 42.66015625 C-26.38396698 43.55082291 -27.27574646 44.44148956 -28.19454956 45.35914612 C-29.02866364 46.18688034 -29.86277771 47.01461456 -30.72216797 47.86743164 C-31.4533786 48.59483047 -32.18458923 49.32222931 -32.93795776 50.07167053 C-38.23363335 55.02394896 -38.23363335 55.02394896 -41 54.9375 C-43.55689522 53.73895537 -45.11996267 52.0814699 -47 50 C-45.620041 45.8156446 -43.75723745 43.39055669 -40.64208984 40.30151367 C-39.74130707 39.40095749 -38.84052429 38.50040131 -37.91244507 37.57255554 C-36.92876926 36.60419734 -35.94492956 35.63600559 -34.9609375 34.66796875 C-33.95423059 33.6668613 -32.94818713 32.66508629 -31.94277954 31.66267395 C-29.30256306 29.03387862 -26.65346054 26.41421981 -24.00238037 23.79638672 C-21.29562164 21.12038776 -18.59739932 18.43581168 -15.8984375 15.75195312 C-10.6072575 10.49288908 -5.30665683 5.24345163 0 0 Z " fill="#090909" transform="translate(98,395)"/>
<path d="M0 0 C6.21001375 2.31473419 6.21001375 2.31473419 8 6 C6.86577488 9.82117593 5.20442407 12.17061138 2.40820312 14.96411133 C1.30696106 16.07469658 1.30696106 16.07469658 0.18347168 17.2077179 C-1.00562805 18.38300301 -1.00562805 18.38300301 -2.21875 19.58203125 C-3.03243042 20.39621017 -3.84611084 21.2103891 -4.68444824 22.04924011 C-6.40241232 23.76486698 -8.12406248 25.47680957 -9.84912109 27.18530273 C-12.4988513 29.81136156 -15.13493276 32.45056645 -17.76953125 35.09179688 C-19.43931199 36.75600354 -21.10985871 38.41944209 -22.78125 40.08203125 C-23.97034973 41.27249809 -23.97034973 41.27249809 -25.18347168 42.48701477 C-25.91763306 43.21164413 -26.65179443 43.9362735 -27.40820312 44.68286133 C-28.05503052 45.32508133 -28.70185791 45.96730133 -29.36828613 46.62898254 C-31 48 -31 48 -33 48 C-37.54190819 44.01198305 -37.54190819 44.01198305 -38.8690033 41.08026123 C-39 39 -39 39 -37.6396637 37.03839111 C-36.94461227 36.35444275 -36.24956085 35.67049438 -35.53344727 34.96582031 C-34.75256241 34.18531311 -33.97167755 33.40480591 -33.16712952 32.60064697 C-32.30889084 31.76821472 -31.45065216 30.93578247 -30.56640625 30.078125 C-29.69934555 29.21813904 -28.83228485 28.35815308 -27.93894958 27.47210693 C-25.15827669 24.7194929 -22.36074881 21.98473395 -19.5625 19.25 C-17.67790319 17.39047077 -15.79442435 15.52980775 -13.91210938 13.66796875 C-9.28764699 9.09872871 -4.6492161 4.54404317 0 0 Z " fill="#060606" transform="translate(65,362)"/>
<path d="M0 0 C1.32 0.33 2.64 0.66 4 1 C3.67 2.32 3.34 3.64 3 5 C3.66 5.33 4.32 5.66 5 6 C4.34 6 3.68 6 3 6 C3 6.66 3 7.32 3 8 C4.32 8.33 5.64 8.66 7 9 C7 9.99 7 10.98 7 12 C9.97 12.495 9.97 12.495 13 13 C12 15 12 15 10.25390625 15.81201172 C7.23363466 17.40393563 5.30078553 19.54750697 2.9375 22.0078125 C1.96641816 23.00417174 0.99505553 24.00025738 0.0234375 24.99609375 C-1.49452967 26.56380611 -3.00911822 28.13451989 -4.51855469 29.71044922 C-5.98278355 31.23501458 -7.45914767 32.74695681 -8.9375 34.2578125 C-10.25041016 35.62123779 -10.25041016 35.62123779 -11.58984375 37.01220703 C-14 39 -14 39 -18 39 C-19.51953125 37.609375 -19.51953125 37.609375 -20.8125 35.75 C-21.25207031 35.14671875 -21.69164063 34.5434375 -22.14453125 33.921875 C-23 32 -23 32 -22.7890625 29.9375 C-21.5541981 26.90535772 -19.42658142 25.13065686 -17 23 C-16.34 23 -15.68 23 -15 23 C-14.7525 22.4225 -14.505 21.845 -14.25 21.25 C-12.81700012 18.67060021 -11.21575324 16.93878408 -9 15 C-8.34 15 -7.68 15 -7 15 C-6.7525 14.38125 -6.505 13.7625 -6.25 13.125 C-5 11 -5 11 -3 10.125 C-0.68865074 9.08628627 -0.68865074 9.08628627 0.3125 6.0625 C1.28086841 2.98202757 1.28086841 2.98202757 0 0 Z M5 13 C5 13.66 5 14.32 5 15 C5.66 15 6.32 15 7 15 C7 14.34 7 13.68 7 13 C6.34 13 5.68 13 5 13 Z " fill="#F2F2F2" transform="translate(88,381)"/>
<path d="M0 0 C2.83116402 0.91821536 4.75048057 1.76657859 6.9375 3.8125 C8 6 8 6 7.33837891 8.34643555 C5.80929882 11.37809762 4.07128706 13.27013868 1.6484375 15.64453125 C0.37226562 16.90620117 0.37226562 16.90620117 -0.9296875 18.19335938 C-1.81914063 19.05767578 -2.70859375 19.92199219 -3.625 20.8125 C-4.5221875 21.69615234 -5.419375 22.57980469 -6.34375 23.49023438 C-8.55588998 25.66707425 -10.77473073 27.83659664 -13 30 C-15.62386487 26.93882432 -16 26.26826873 -16 22 C-15.34 22 -14.68 22 -14 22 C-13.67 21.34 -13.34 20.68 -13 20 C-12.34 20 -11.68 20 -11 20 C-10.67 19.01 -10.34 18.02 -10 17 C-9.175 16.731875 -8.35 16.46375 -7.5 16.1875 C-6.675 15.795625 -5.85 15.40375 -5 15 C-4.10169161 11.94727535 -4.10169161 11.94727535 -4 9 C-5.65 9.33 -7.3 9.66 -9 10 C-8.06409496 8.8944811 -7.12620142 7.79064547 -6.1875 6.6875 C-5.40439453 5.76517578 -5.40439453 5.76517578 -4.60546875 4.82421875 C-3.12827531 3.14575321 -1.59960869 1.56117966 0 0 Z " fill="#0C0C0C" transform="translate(65,362)"/>
<path d="M0 0 C0.33 0.99 0.66 1.98 1 3 C0.34 3 -0.32 3 -1 3 C1.1385485 5.1385485 2.13275314 5.42655063 5 6 C5.33 5.01 5.66 4.02 6 3 C7.65 3.66 9.3 4.32 11 5 C7.86792618 8.74321017 4.69171033 12.41449348 1.3125 15.9375 C0.75175781 16.52402344 0.19101562 17.11054688 -0.38671875 17.71484375 C-2 19 -2 19 -5 19 C-5.66 17.35 -6.32 15.7 -7 14 C-8.485 16.475 -8.485 16.475 -10 19 C-10.66 18.01 -11.32 17.02 -12 16 C-14.31 17.98 -16.62 19.96 -19 22 C-19.66 21.67 -20.32 21.34 -21 21 C-14.07 14.07 -7.14 7.14 0 0 Z " fill="#F4F4F4" transform="translate(55,388)"/>
<path d="M0 0 C4.2742558 1.5830577 6.26531794 4.50568404 9 8 C7.93283928 9.20205464 6.84561663 10.38632333 5.75 11.5625 C4.84507813 12.55443359 4.84507813 12.55443359 3.921875 13.56640625 C2 15 2 15 -0.0625 14.875 C-2.99930764 13.54869977 -4.83873246 11.34137317 -7 9 C-5.44499019 5.18315774 -2.96404505 2.80804268 0 0 Z " fill="#101010" transform="translate(41,452)"/>
<path d="M0 0 C3.76488042 1.72154788 6.15063897 3.99234114 9 7 C7.02 9.64 5.04 12.28 3 15 C-1.83436534 13.79140866 -3.44345331 12.39488548 -7 9 C-7 6 -7 6 -5.46875 4.39453125 C-4.49421875 3.61142578 -4.49421875 3.61142578 -3.5 2.8125 C-2.8503125 2.28269531 -2.200625 1.75289063 -1.53125 1.20703125 C-1.0259375 0.80871094 -0.520625 0.41039062 0 0 Z " fill="#0D0D0D" transform="translate(7,452)"/>
<path d="M0 0 C3.35915158 1.43963639 5.71624938 3.12416589 8 6 C8.10246657 9.17646376 6.71820089 10.34272865 4.6875 12.8125 C2 15 2 15 -0.0625 15.0625 C-2.63100135 13.653967 -4.23440059 12.35413255 -6 10 C-6.09766173 6.19119238 -5.02188638 5.02402164 -2.4375 2.1875 C-1.2309375 1.1046875 -1.2309375 1.1046875 0 0 Z " fill="#0B0B0B" transform="translate(16,411)"/>
<path d="M0 0 C3.93673644 1.31224548 6.22719294 2.91910327 9 6 C7.41332422 9.90285767 4.86649519 12.33520982 1.875 15.25 C0.96492188 16.14203125 0.05484375 17.0340625 -0.8828125 17.953125 C-1.58148438 18.62859375 -2.28015625 19.3040625 -3 20 C-3.66 19.01 -4.32 18.02 -5 17 C-4.34 17 -3.68 17 -3 17 C-3 16.34 -3 15.68 -3 15 C-3.66 14.67 -4.32 14.34 -5 14 C-4.34 14 -3.68 14 -3 14 C-3 13.34 -3 12.68 -3 12 C-3.66 11.67 -4.32 11.34 -5 11 C-4.34 11 -3.68 11 -3 11 C-3.66 9.02 -4.32 7.04 -5 5 C-3.35 3.35 -1.7 1.7 0 0 Z M-2 4 C-2.33 4.99 -2.66 5.98 -3 7 C-1.03533587 8.06775224 0.96855359 9.06553465 3 10 C3.66 9.67 4.32 9.34 5 9 C4.67 8.34 4.34 7.68 4 7 C2.66923011 6.65657551 1.33568021 6.32380126 0 6 C-0.66 5.34 -1.32 4.68 -2 4 Z " fill="#131313" transform="translate(98,395)"/>
<path d="M0 0 C0.99 0.33 1.98 0.66 3 1 C3 1.99 3 2.98 3 4 C4.32 4 5.64 4 7 4 C6.33333333 5.33333333 5.66666667 6.66666667 5 8 C4.731875 8.61875 4.46375 9.2375 4.1875 9.875 C2.48604423 12.91971033 0.27894088 15.36122635 -2 18 C-4.52349243 14.87567603 -6.27256146 11.61939504 -8 8 C-6.68 8.33 -5.36 8.66 -4 9 C-4.226875 8.401875 -4.45375 7.80375 -4.6875 7.1875 C-4.790625 6.465625 -4.89375 5.74375 -5 5 C-3.6875 3.375 -3.6875 3.375 -2 2 C-1.34 1.34 -0.68 0.68 0 0 Z " fill="#060606" transform="translate(35,426)"/>
<path d="M0 0 C0.66 0.33 1.32 0.66 2 1 C1.79375 1.5775 1.5875 2.155 1.375 2.75 C0.91020077 5.53879535 1.70116889 6.56469167 3 9 C2.67 9.66 2.34 10.32 2 11 C2.89163577 13.11683841 2.89163577 13.11683841 4 15 C2.35 16.32 0.7 17.64 -1 19 C-3.33681582 15.93292923 -4.88521614 13.71739911 -5.5 9.875 C-4.88453041 6.33604988 -3.64909274 5.32799059 -1 3 C-0.67 2.01 -0.34 1.02 0 0 Z " fill="#F2F2F2" transform="translate(24,417)"/>
<path d="M0 0 C2.83116402 0.91821536 4.75048057 1.76657859 6.9375 3.8125 C8 6 8 6 7.375 8.625 C6 11 6 11 3 13 C0.98863724 10.44008376 -0.62845496 7.95409701 -2 5 C-2.33 6.32 -2.66 7.64 -3 9 C-4.98 9.33 -6.96 9.66 -9 10 C-8.06409496 8.8944811 -7.12620142 7.79064547 -6.1875 6.6875 C-5.66542969 6.07261719 -5.14335938 5.45773437 -4.60546875 4.82421875 C-3.12827531 3.14575321 -1.59960869 1.56117966 0 0 Z " fill="#101010" transform="translate(65,362)"/>
<path d="M0 0 C1.07878418 0.01047363 2.15756836 0.02094727 3.26904297 0.03173828 C5.01894531 0.04140625 5.01894531 0.04140625 6.80419922 0.05126953 C8.02751953 0.06802734 9.25083984 0.08478516 10.51123047 0.10205078 C11.74228516 0.11107422 12.97333984 0.12009766 14.24169922 0.12939453 C17.29006862 0.1530253 20.33805429 0.18597024 23.38623047 0.22705078 C23.38623047 0.88705078 23.38623047 1.54705078 23.38623047 2.22705078 C22.17966797 2.35982422 20.97310547 2.49259766 19.72998047 2.62939453 C18.11539383 2.80775003 16.50081068 2.98613714 14.88623047 3.16455078 C13.69900391 3.29506836 13.69900391 3.29506836 12.48779297 3.42822266 C7.44807944 3.98589587 2.41612981 4.5867769 -2.61376953 5.22705078 C-3.27376953 4.23705078 -3.93376953 3.24705078 -4.61376953 2.22705078 C-2.61376953 0.22705078 -2.61376953 0.22705078 0 0 Z " fill="#F2F2F2" transform="translate(428.61376953125,-0.22705078125)"/>
<path d="M0 0 C0.33 0.66 0.66 1.32 1 2 C2.98 2 4.96 2 7 2 C6.6875 4.625 6.6875 4.625 5 8 C-3.68918919 14 -3.68918919 14 -8 14 C-8 13.34 -8 12.68 -8 12 C-7.34 12 -6.68 12 -6 12 C-5.7525 11.13375 -5.505 10.2675 -5.25 9.375 C-3.93221387 5.81697746 -2.19813178 3.0773845 0 0 Z " fill="#0D0D0D" transform="translate(8,255)"/>
<path d="M0 0 C2.80754639 0 4.41266933 0.42384138 6.4375 2.41015625 C7.67632119 3.89885331 8.84326078 5.44666448 10 7 C8.71034824 8.37562854 7.37310707 9.70766393 6 11 C4 11 4 11 1.4375 8.75 C-1.89696412 4.98804048 -1.89696412 4.98804048 -2 2 C-1.34 1.34 -0.68 0.68 0 0 Z " fill="#0A0A0A" transform="translate(28,399)"/>
<path d="M0 0 C0 0.99 0 1.98 0 3 C-1.33333333 4.33333333 -2.66666667 5.66666667 -4 7 C-4.7872678 9.1381966 -4.7872678 9.1381966 -5 11 C-5.99 10.67 -6.98 10.34 -8 10 C-8 10.66 -8 11.32 -8 12 C-9.1875 13.3125 -9.1875 13.3125 -11 15 C-11.825 15.825 -12.65 16.65 -13.5 17.5 C-15.33333333 19.33333333 -17.16666667 21.16666667 -19 23 C-19.515625 23.556875 -20.03125 24.11375 -20.5625 24.6875 C-22 26 -22 26 -24 26 C-22.4152642 22.13671373 -19.94043113 19.71123077 -16.9921875 16.796875 C-16.50670441 16.3142218 -16.02122131 15.8315686 -15.52102661 15.33428955 C-13.97700134 13.80141438 -12.42615176 12.27565996 -10.875 10.75 C-9.82375991 9.70879639 -8.77297343 8.66713459 -7.72265625 7.625 C-5.15366996 5.07800536 -2.57851839 2.53734823 0 0 Z " fill="#0D0D0D" transform="translate(55,372)"/>
<path d="M0 0 C1.32 0.33 2.64 0.66 4 1 C3.67 2.32 3.34 3.64 3 5 C3.66 5.33 4.32 5.66 5 6 C4.34 6 3.68 6 3 6 C3 6.66 3 7.32 3 8 C3.99 8.33 4.98 8.66 6 9 C4.35 9.33 2.7 9.66 1 10 C0.67 11.32 0.34 12.64 0 14 C-0.66 14 -1.32 14 -2 14 C-2 14.66 -2 15.32 -2 16 C-4.475 15.01 -4.475 15.01 -7 14 C-5.71937515 12.2925002 -4.38232443 10.62626404 -3 9 C-2.34 9 -1.68 9 -1 9 C0.81301758 4.56906802 0.81301758 4.56906802 0 0 Z " fill="#EAEAEA" transform="translate(88,381)"/>
<path d="M0 0 C2.31 0.66 4.62 1.32 7 2 C6.91433603 4.912575 6.42089045 6.56798024 4.375 8.66796875 C2.61608625 10.16091772 0.83686981 11.60436262 -1 13 C-1.33 12.01 -1.66 11.02 -2 10 C-1.34 10 -0.68 10 0 10 C0 9.34 0 8.68 0 8 C-0.66 7.67 -1.32 7.34 -2 7 C-1.34 7 -0.68 7 0 7 C0 6.34 0 5.68 0 5 C-0.66 4.67 -1.32 4.34 -2 4 C-1.34 4 -0.68 4 0 4 C-0.33 3.01 -0.66 2.02 -1 1 C-0.67 0.67 -0.34 0.34 0 0 Z " fill="#0D0D0D" transform="translate(95,402)"/>
<path d="M0 0 C1.32 0.99 2.64 1.98 4 3 C3.52753358 7.25219775 1.22727623 9.37314725 -2 12 C-4.3125 11.8125 -4.3125 11.8125 -6 11 C-4.54955729 6.89041233 -2.48889248 3.56741255 0 0 Z " fill="#0E0E0E" transform="translate(20,414)"/>
<path d="M0 0 C0 2.66666667 0 5.33333333 0 8 C0.66 8.33 1.32 8.66 2 9 C-0.64 9.66 -3.28 10.32 -6 11 C-6 10.34 -6 9.68 -6 9 C-6.66 9 -7.32 9 -8 9 C-8.33 10.32 -8.66 11.64 -9 13 C-11 13 -11 13 -14 12 C-9.38465781 7.93521893 -4.74414188 3.91391705 0 0 Z " fill="#121212" transform="translate(260,86)"/>
<path d="M0 0 C1.65 1.65 3.3 3.3 5 5 C2 7 2 7 -1 6.8125 C-1.99 6.874375 -2.98 6.93625 -4 7 C-5.60907108 9.37612865 -5.60907108 9.37612865 -7 12 C-9.6875 13.3125 -9.6875 13.3125 -12 14 C-8.34161026 8.88863277 -4.55388068 4.33702922 0 0 Z " fill="#191919" transform="translate(49,201)"/>
<path d="M0 0 C0 3.11227195 -0.45627049 5.94152152 -1 9 C-0.34 9.33 0.32 9.66 1 10 C-0.32 11.32 -1.64 12.64 -3 14 C-3 12.68 -3 11.36 -3 10 C-3.33 9.67 -3.66 9.34 -4 9 C-4.66 9.66 -5.32 10.32 -6 11 C-8.125 10.625 -8.125 10.625 -10 10 C-9.0479279 8.99403703 -8.08812654 7.99538437 -7.125 7 C-6.32449219 6.1646875 -6.32449219 6.1646875 -5.5078125 5.3125 C-4 4 -4 4 -2 4 C-1.34 2.68 -0.68 1.36 0 0 Z " fill="#DFDFDF" transform="translate(35,440)"/>
<path d="M0 0 C0.99 0.33 1.98 0.66 3 1 C2.01 1.495 2.01 1.495 1 2 C1.33 2.99 1.66 3.98 2 5 C1.01 5.495 1.01 5.495 0 6 C-0.66 5.67 -1.32 5.34 -2 5 C-2.33 6.32 -2.66 7.64 -3 9 C-4.32 9.33 -5.64 9.66 -7 10 C-5.33248852 6.05860922 -2.77289351 3.2107188 0 0 Z M-9 11 C-8.34 12.32 -7.68 13.64 -7 15 C-8.98 15.99 -10.96 16.98 -13 18 C-13 15 -13 15 -11 12.8125 C-10.34 12.214375 -9.68 11.61625 -9 11 Z " fill="#EAEAEA" transform="translate(390,211)"/>
<path d="M0 0 C0.99 0.33 1.98 0.66 3 1 C2.360625 1.598125 1.72125 2.19625 1.0625 2.8125 C-1.20310389 4.90810337 -1.20310389 4.90810337 -2 8 C-2.969375 8.12375 -3.93875 8.2475 -4.9375 8.375 C-5.948125 8.58125 -6.95875 8.7875 -8 9 C-8.33 9.66 -8.66 10.32 -9 11 C-10.5 9.625 -10.5 9.625 -12 8 C-12 7.34 -12 6.68 -12 6 C-12.66 6 -13.32 6 -14 6 C-13.67 5.01 -13.34 4.02 -13 3 C-12.4225 3.515625 -11.845 4.03125 -11.25 4.5625 C-9.17287953 6.17385487 -9.17287953 6.17385487 -7.0625 6 C-4.1062003 4.56664257 -2.20962069 2.39375574 0 0 Z " fill="#EDEDED" transform="translate(49,460)"/>
<path d="M0 0 C-0.61875 0.2475 -1.2375 0.495 -1.875 0.75 C-4.39272383 2.23101402 -5.08392564 3.25177691 -6 6 C-5.67 6.99 -5.34 7.98 -5 9 C-8 9 -8 9 -10.1875 7 C-10.785625 6.34 -11.38375 5.68 -12 5 C-11.67 4.01 -11.34 3.02 -11 2 C-9.00390625 1.015625 -9.00390625 1.015625 -6.5625 0.25 C-5.75941406 -0.01296875 -4.95632813 -0.2759375 -4.12890625 -0.546875 C-2 -1 -2 -1 0 0 Z " fill="#222222" transform="translate(380,17)"/>
<path d="M0 0 C0.66 0.66 1.32 1.32 2 2 C0.02 4.64 -1.96 7.28 -4 10 C-5.32 8.68 -6.64 7.36 -8 6 C-6.1410603 2.28212059 -4.24503077 0 0 0 Z " fill="#101010" transform="translate(408,185)"/>
<path d="M0 0 C1.32 0 2.64 0 4 0 C4.36923077 5.41538462 4.36923077 5.41538462 2.5 8.375 C2.005 8.91125 1.51 9.4475 1 10 C-0.32 8.35 -1.64 6.7 -3 5 C-1.75 2.5 -1.75 2.5 0 0 Z " fill="#F3F3F3" transform="translate(219,433)"/>
<path d="M0 0 C0.66 0.33 1.32 0.66 2 1 C1.01 2.32 0.02 3.64 -1 5 C-0.67 5 -0.34 5 0 5 C0.1875 7.375 0.1875 7.375 0 10 C-0.99 10.66 -1.98 11.32 -3 12 C-5 10.6875 -5 10.6875 -7 9 C-7 6 -7 6 -5.46875 4.39453125 C-4.49421875 3.61142578 -4.49421875 3.61142578 -3.5 2.8125 C-2.8503125 2.28269531 -2.200625 1.75289063 -1.53125 1.20703125 C-1.0259375 0.80871094 -0.520625 0.41039062 0 0 Z " fill="#222222" transform="translate(7,452)"/>
<path d="M0 0 C2 1 4 2 6 3 C6.99 2.34 7.98 1.68 9 1 C9.99 1.33 10.98 1.66 12 2 C11 5 11 5 9.1875 6.25 C6.57730497 7.14492401 5.52801834 7.06013672 3 6 C1.25 4.625 1.25 4.625 0 3 C0 2.01 0 1.02 0 0 Z " fill="#101010" transform="translate(137,369)"/>
<path d="M0 0 C1.953125 0.7109375 1.953125 0.7109375 4 2 C4.609375 4.1640625 4.609375 4.1640625 4.75 6.625 C4.80671875 7.44226563 4.8634375 8.25953125 4.921875 9.1015625 C4.94765625 9.72804688 4.9734375 10.35453125 5 11 C3.35 11.66 1.7 12.32 0 13 C0 9.89448334 0.5393715 8.64738916 2 6 C1.34 5.34 0.68 4.68 0 4 C0 2.68 0 1.36 0 0 Z " fill="#F2F2F2" transform="translate(104,395)"/>
<path d="M0 0 C0.33 0.66 0.66 1.32 1 2 C1.66 2.33 2.32 2.66 3 3 C3 3.66 3 4.32 3 5 C2.071875 5.12375 2.071875 5.12375 1.125 5.25 C-1.15715618 5.81886299 -1.15715618 5.81886299 -2.3125 7.9375 C-2.539375 8.618125 -2.76625 9.29875 -3 10 C-2.67 10.66 -2.34 11.32 -2 12 C-3.98 12.66 -5.96 13.32 -8 14 C-8 13.34 -8 12.68 -8 12 C-7.34 12 -6.68 12 -6 12 C-5.7525 11.13375 -5.505 10.2675 -5.25 9.375 C-3.93221387 5.81697746 -2.19813178 3.0773845 0 0 Z " fill="#121212" transform="translate(8,255)"/>
<path d="M0 0 C0.99 1.32 1.98 2.64 3 4 C2.030625 4.28875 1.06125 4.5775 0.0625 4.875 C-3.10664203 5.64214682 -3.10664203 5.64214682 -4 8 C-5.32 7.67 -6.64 7.34 -8 7 C-8 7.66 -8 8.32 -8 9 C-8.99 8.67 -9.98 8.34 -11 8 C-8.80861021 5.64270057 -6.56068027 3.97942902 -3.8125 2.3125 C-3.09707031 1.87550781 -2.38164062 1.43851562 -1.64453125 0.98828125 C-1.10183594 0.66214844 -0.55914062 0.33601563 0 0 Z " fill="#191919" transform="translate(289,323)"/>
<path d="M0 0 C2 3 2 3 3 6 C2.195625 6.45375 1.39125 6.9075 0.5625 7.375 C-2.08856572 8.74725665 -2.08856572 8.74725665 -3 11 C-3.99 11 -4.98 11 -6 11 C-4.18690997 7.22272911 -2.0926741 3.62730178 0 0 Z " fill="#2B2B2B" transform="translate(209,463)"/>
<path d="M0 0 C0.33 0.99 0.66 1.98 1 3 C0.01 4.485 0.01 4.485 -1 6 C-0.19595537 9.1628485 -0.19595537 9.1628485 1 12 C0.01 12.495 0.01 12.495 -1 13 C-1.66 12.67 -2.32 12.34 -3 12 C-3 11.01 -3 10.02 -3 9 C-3.99 9.66 -4.98 10.32 -6 11 C-5.39305845 7.84669446 -4.3583335 5.81111133 -2.4375 3.25 C-1.98246094 2.63640625 -1.52742188 2.0228125 -1.05859375 1.390625 C-0.70925781 0.93171875 -0.35992187 0.4728125 0 0 Z " fill="#EDEDED" transform="translate(415,179)"/>
<path d="M0 0 C0.33 0.99 0.66 1.98 1 3 C1.99 3 2.98 3 4 3 C4.33 3.99 4.66 4.98 5 6 C3.71034824 7.37562854 2.37310707 8.70766393 1 10 C0.34 10 -0.32 10 -1 10 C-1.125 2.25 -1.125 2.25 0 0 Z " fill="#F5F5F5" transform="translate(1,448)"/>
<path d="M0 0 C1.32 0.33 2.64 0.66 4 1 C3.50769231 7.52307692 3.50769231 7.52307692 0.9375 9.9375 C0.298125 10.288125 -0.34125 10.63875 -1 11 C-2.26264601 6.70700357 -1.62950412 4.12168689 0 0 Z " fill="#F1F1F1" transform="translate(115,277)"/>
<path d="M0 0 C-1 3 -1 3 -4 5 C-4.99 4.67 -5.98 4.34 -7 4 C-2.25 0 -2.25 0 0 0 Z M-8 6 C-8.33 7.32 -8.66 8.64 -9 10 C-9.66 10 -10.32 10 -11 10 C-11 10.66 -11 11.32 -11 12 C-12.32 11.34 -13.64 10.68 -15 10 C-10.25 6 -10.25 6 -8 6 Z " fill="#1B1B1B" transform="translate(79,176)"/>
<path d="M0 0 C0.99 0 1.98 0 3 0 C1.59155282 3.21524305 -0.10344786 5.32183868 -2.625 7.75 C-3.57246094 8.67039062 -3.57246094 8.67039062 -4.5390625 9.609375 C-5.02117187 10.06828125 -5.50328125 10.5271875 -6 11 C-6.64453125 9.171875 -6.64453125 9.171875 -7 7 C-4.6875 4.25 -4.6875 4.25 -2 2 C-1.34 2 -0.68 2 0 2 C0 1.34 0 0.68 0 0 Z " fill="#E9E9E9" transform="translate(87,402)"/>
<path d="M0 0 C1.98 0.99 1.98 0.99 4 2 C4.66 1.34 5.32 0.68 6 0 C6.66 0.66 7.32 1.32 8 2 C7.34 2 6.68 2 6 2 C6.99 3.485 6.99 3.485 8 5 C7.625 7.1875 7.625 7.1875 7 9 C4.03595495 6.19195732 1.55500981 3.81684226 0 0 Z " fill="#EBEBEB" transform="translate(276,184)"/>
<path d="M0 0 C1.98 0.99 1.98 0.99 4 2 C4 5.23861295 3.3749149 7.09740189 2 10 C1.01 10.495 1.01 10.495 0 11 C0 7.37 0 3.74 0 0 Z " fill="#F6F6F6" transform="translate(0,461)"/>
<path d="M0 0 C0.66 0.33 1.32 0.66 2 1 C1.82374165 3.37948772 1.30280227 4.70225849 -0.40234375 6.37890625 C-1.90649092 7.62115486 -3.45129851 8.81376056 -5 10 C-5.33 9.01 -5.66 8.02 -6 7 C-5.34 7 -4.68 7 -4 7 C-4 6.34 -4 5.68 -4 5 C-4.66 4.67 -5.32 4.34 -6 4 C-5.34 4 -4.68 4 -4 4 C-3.67 3.34 -3.34 2.68 -3 2 C-3 2.66 -3 3.32 -3 4 C-2.34 3.67 -1.68 3.34 -1 3 C-0.67 2.01 -0.34 1.02 0 0 Z " fill="#121212" transform="translate(91,413)"/>
<path d="M0 0 C0.99 0.33 1.98 0.66 3 1 C1.36587557 2.70840281 0.13093906 3.93453047 -2 5 C-2.65213292 7.02463255 -2.65213292 7.02463255 -3 9 C-3.99 9 -4.98 9 -6 9 C-6.66 9.66 -7.32 10.32 -8 11 C-8 8 -8 8 -6.25 5.95703125 C-5.5075 5.24933594 -4.765 4.54164063 -4 3.8125 C-2.88625 2.73935547 -2.88625 2.73935547 -1.75 1.64453125 C-1.1725 1.10183594 -0.595 0.55914062 0 0 Z " fill="#ECECEC" transform="translate(65,378)"/>
<path d="M0 0 C0.33 1.32 0.66 2.64 1 4 C-4.625 7 -4.625 7 -8 7 C-6.47663111 3.31852519 -4.31953005 0 0 0 Z " fill="#EFEFEF" transform="translate(311,287)"/>
<path d="M0 0 C0.66 0.33 1.32 0.66 2 1 C1.67 2.65 1.34 4.3 1 6 C-0.175625 5.9690625 -0.175625 5.9690625 -1.375 5.9375 C-3.98114961 5.81315937 -3.98114961 5.81315937 -6 7 C-6.33 6.01 -6.66 5.02 -7 4 C-1.7265625 0.77734375 -1.7265625 0.77734375 0 0 Z " fill="#E6E6E6" transform="translate(222,462)"/>
<path d="M0 0 C4.1016749 2.05083745 5.50517801 4.74550664 7 9 C3.2273236 8.46104623 1.31787009 7.00464642 -1 4 C-0.75 1.75 -0.75 1.75 0 0 Z " fill="#F4F4F4" transform="translate(119,329)"/>
<path d="M0 0 C1.65 0 3.3 0 5 0 C3.02 3.63 1.04 7.26 -1 11 C-1.33 11 -1.66 11 -2 11 C-2.20086443 7.28400809 -2.1519437 6.22791555 0 3 C0 2.01 0 1.02 0 0 Z " fill="#EAEAEA" transform="translate(12,241)"/>
<path d="M0 0 C2 2 2 2 3 5 C1.1875 6.0625 1.1875 6.0625 -1 7 C-1.99 6.67 -2.98 6.34 -4 6 C-4 5.01 -4 4.02 -4 3 C-2 1.3125 -2 1.3125 0 0 Z " fill="#030303" transform="translate(68,427)"/>
<path d="M0 0 C0 2.66666667 0 5.33333333 0 8 C-4 8 -4 8 -7 7 C-4.69 4.69 -2.38 2.38 0 0 Z " fill="#D4D4D4" transform="translate(367,236)"/>
<path d="M0 0 C0.66 0.66 1.32 1.32 2 2 C0.35 3.98 -1.3 5.96 -3 8 C-3.99 7.67 -4.98 7.34 -6 7 C-4.52307692 2.32307692 -4.52307692 2.32307692 -1.875 0.6875 C-1.25625 0.460625 -0.6375 0.23375 0 0 Z " fill="#F0F0F0" transform="translate(196,148)"/>
<path d="M0 0 C0.66 0.33 1.32 0.66 2 1 C1.54625 1.5775 1.0925 2.155 0.625 2.75 C-1.06664651 4.88165972 -1.06664651 4.88165972 -1.8125 7.1875 C-3 9 -3 9 -6.125 9.75 C-7.548125 9.87375 -7.548125 9.87375 -9 10 C-8.06409496 8.8944811 -7.12620142 7.79064547 -6.1875 6.6875 C-5.66542969 6.07261719 -5.14335938 5.45773437 -4.60546875 4.82421875 C-3.12827531 3.14575321 -1.59960869 1.56117966 0 0 Z " fill="#262626" transform="translate(65,362)"/>
<path d="M0 0 C0 0.99 0 1.98 0 3 C0.309375 4.0209375 0.309375 4.0209375 0.625 5.0625 C0.74875 5.701875 0.8725 6.34125 1 7 C0.34 7.66 -0.32 8.32 -1 9 C-1.66 8.34 -2.32 7.68 -3 7 C-3.99 7.66 -4.98 8.32 -6 9 C-6 6 -6 6 -4.6875 4.39453125 C-4.130625 3.87246094 -3.57375 3.35039062 -3 2.8125 C-2.443125 2.28269531 -1.88625 1.75289063 -1.3125 1.20703125 C-0.6628125 0.60955078 -0.6628125 0.60955078 0 0 Z " fill="#1C1C1C" transform="translate(31,428)"/>
<path d="M0 0 C0 0.33 0 0.66 0 1 C-3.3 1.33 -6.6 1.66 -10 2 C-10 2.66 -10 3.32 -10 4 C-11.98 4.33 -13.96 4.66 -16 5 C-16.33 4.34 -16.66 3.68 -17 3 C-11.42531458 -0.61601216 -6.39432346 -0.30720059 0 0 Z " fill="#2B2B2B" transform="translate(315,146)"/>
<path d="M0 0 C0 3.22124915 -0.79255542 5.05685384 -2 8 C-2 8.66 -2 9.32 -2 10 C-3.32 9.34 -4.64 8.68 -6 8 C-4.55746343 4.63408134 -2.66735273 2.48952921 0 0 Z " fill="#171717" transform="translate(23,436)"/>
<path d="M0 0 C0.66 0 1.32 0 2 0 C2 0.66 2 1.32 2 2 C3.65 1.34 5.3 0.68 7 0 C7 0.99 7 1.98 7 3 C5.25 4.75 5.25 4.75 3 6 C0.75 5.6875 0.75 5.6875 -1 5 C-0.67 3.35 -0.34 1.7 0 0 Z " fill="#EEEEEE" transform="translate(306,305)"/>
<path d="M0 0 C-1.32 1.65 -2.64 3.3 -4 5 C-5.32 4.67 -6.64 4.34 -8 4 C-8.33 4.66 -8.66 5.32 -9 6 C-9.66 5.34 -10.32 4.68 -11 4 C-9.73760288 3.13341385 -8.46472499 2.28207941 -7.1875 1.4375 C-6.47980469 0.96183594 -5.77210937 0.48617188 -5.04296875 -0.00390625 C-3 -1 -3 -1 0 0 Z " fill="#ECECEC" transform="translate(17,262)"/>
<path d="M0 0 C1.17539996 0.92652701 2.34010577 1.86663387 3.5 2.8125 C4.1496875 3.33457031 4.799375 3.85664063 5.46875 4.39453125 C7 6 7 6 7 9 C5.84772177 8.23883449 4.7033614 7.46567307 3.5625 6.6875 C2.92441406 6.25824219 2.28632813 5.82898438 1.62890625 5.38671875 C0 4 0 4 -1 1 C-0.67 0.67 -0.34 0.34 0 0 Z " fill="#E0E0E0" transform="translate(428,129)"/>
<path d="M0 0 C1.17539996 0.92652701 2.34010577 1.86663387 3.5 2.8125 C4.1496875 3.33457031 4.799375 3.85664062 5.46875 4.39453125 C7 6 7 6 7 9 C5.84772177 8.23883449 4.7033614 7.46567307 3.5625 6.6875 C2.92441406 6.25824219 2.28632813 5.82898438 1.62890625 5.38671875 C0 4 0 4 -1 1 C-0.67 0.67 -0.34 0.34 0 0 Z " fill="#E0E0E0" transform="translate(420,121)"/>
<path d="M0 0 C0.99 0.33 1.98 0.66 3 1 C2.67 2.65 2.34 4.3 2 6 C1.34 6 0.68 6 0 6 C-0.33 6.66 -0.66 7.32 -1 8 C-1.99 6.68 -2.98 5.36 -4 4 C-2.68 3.67 -1.36 3.34 0 3 C0 2.01 0 1.02 0 0 Z " fill="#F4F4F4" transform="translate(356,73)"/>
<path d="M0 0 C0.66 0.99 1.32 1.98 2 3 C1.34 4.32 0.68 5.64 0 7 C-1.65 5.35 -3.3 3.7 -5 2 C-3.35 1.34 -1.7 0.68 0 0 Z " fill="#0D0D0D" transform="translate(25,444)"/>
<path d="M0 0 C0.99 0 1.98 0 3 0 C1.8141763 3.37503669 0.72426311 5.64722731 -2 8 C-3 7 -3 7 -3.0625 4.4375 C-3.041875 3.633125 -3.02125 2.82875 -3 2 C-2.01 2 -1.02 2 0 2 C0 1.34 0 0.68 0 0 Z " fill="#161616" transform="translate(165,157)"/>
<path d="M0 0 C1.98 0.99 3.96 1.98 6 3 C5.125 7.75 5.125 7.75 4 10 C3.01 9.67 2.02 9.34 1 9 C1.20625 8.443125 1.4125 7.88625 1.625 7.3125 C2.10695211 4.340462 1.26565028 2.68020059 0 0 Z " fill="#0F0F0F" transform="translate(436,129)"/>
<path d="M0 0 C2.475 0.99 2.475 0.99 5 2 C4.01 4.31 3.02 6.62 2 9 C0 7 0 7 -0.125 3.375 C-0.08375 2.26125 -0.0425 1.1475 0 0 Z " fill="#0F0F0F" transform="translate(273,144)"/>
<path d="M0 0 C3.19199167 2.41556126 5.74716687 4.68003538 8 8 C3.61031544 8 2.23094261 5.87194899 -1 3 C-0.67 2.01 -0.34 1.02 0 0 Z M0 5 C2 6 2 6 2 6 Z " fill="#242424" transform="translate(396,121)"/>
<path d="M0 0 C-1.49097658 3.7952131 -3.75700849 5.61042731 -7 8 C-7.33 7.01 -7.66 6.02 -8 5 C-7.34 5 -6.68 5 -6 5 C-5.67 4.01 -5.34 3.02 -5 2 C-2 0 -2 0 0 0 Z " fill="#111111" transform="translate(85,423)"/>
<path d="M0 0 C1.65 0.33 3.3 0.66 5 1 C3.35 2.65 1.7 4.3 0 6 C-0.66 5.01 -1.32 4.02 -2 3 C-1.34 2.01 -0.68 1.02 0 0 Z " fill="#0E0E0E" transform="translate(43,394)"/>
<path d="M0 0 C0.33 0.66 0.66 1.32 1 2 C1.66 2.33 2.32 2.66 3 3 C2.01 4.98 1.02 6.96 0 9 C-0.66 9 -1.32 9 -2 9 C-2 7.02 -2 5.04 -2 3 C-1.34 3 -0.68 3 0 3 C0 2.01 0 1.02 0 0 Z " fill="#EAEAEA" transform="translate(2,258)"/>
<path d="M0 0 C1.98 0.66 3.96 1.32 6 2 C4.68 3.32 3.36 4.64 2 6 C1.01 5.01 0.02 4.02 -1 3 C-0.67 2.01 -0.34 1.02 0 0 Z " fill="#0F0F0F" transform="translate(346,249)"/>
<path d="M0 0 C0.33 0.99 0.66 1.98 1 3 C-1.64 5.31 -4.28 7.62 -7 10 C-7.66 9.67 -8.32 9.34 -9 9 C-6 6 -3 3 0 0 Z " fill="#1D1D1D" transform="translate(63,187)"/>
<path d="M0 0 C0.80050781 0.03480469 1.60101563 0.06960938 2.42578125 0.10546875 C3.63814453 0.14607422 3.63814453 0.14607422 4.875 0.1875 C5.48988281 0.22230469 6.10476563 0.25710937 6.73828125 0.29296875 C6.73828125 0.95296875 6.73828125 1.61296875 6.73828125 2.29296875 C0.79828125 2.78796875 0.79828125 2.78796875 -5.26171875 3.29296875 C-2.26171875 0.29296875 -2.26171875 0.29296875 0 0 Z " fill="#C6C6C6" transform="translate(445.26171875,-0.29296875)"/>
<path d="M0 0 C0.66 1.32 1.32 2.64 2 4 C-3.2734375 7.22265625 -3.2734375 7.22265625 -5 8 C-5.66 7.67 -6.32 7.34 -7 7 C-4.69 4.69 -2.38 2.38 0 0 Z " fill="#E8E8E8" transform="translate(85,424)"/>
<path d="M0 0 C1.32 0.66 2.64 1.32 4 2 C2.71937515 3.7074998 1.38232443 5.37373596 0 7 C-0.66 7 -1.32 7 -2 7 C-2.33 6.01 -2.66 5.02 -3 4 C-2.01 3.67 -1.02 3.34 0 3 C0 2.01 0 1.02 0 0 Z " fill="#181818" transform="translate(34,403)"/>
<path d="M0 0 C0.33 0.99 0.66 1.98 1 3 C0.34 3 -0.32 3 -1 3 C-0.67 3.99 -0.34 4.98 0 6 C-0.61875 6.12375 -1.2375 6.2475 -1.875 6.375 C-4.19120832 6.87197356 -4.19120832 6.87197356 -6 9 C-6 6 -6 6 -4.6875 4.39453125 C-4.130625 3.87246094 -3.57375 3.35039062 -3 2.8125 C-2.443125 2.28269531 -1.88625 1.75289063 -1.3125 1.20703125 C-0.6628125 0.60955078 -0.6628125 0.60955078 0 0 Z " fill="#EAEAEA" transform="translate(55,388)"/>
<path d="M0 0 C1.75 0.9375 1.75 0.9375 2.75 2.9375 C-3.875 4.9375 -3.875 4.9375 -7.25 4.9375 C-2.8452381 -0.07903439 -2.8452381 -0.07903439 0 0 Z " fill="#282828" transform="translate(83.25,378.0625)"/>
<path d="M0 0 C0.66 0.99 1.32 1.98 2 3 C1.34 3 0.68 3 0 3 C0 3.66 0 4.32 0 5 C0.66 5.33 1.32 5.66 2 6 C-1.75 7.125 -1.75 7.125 -4 6 C-2.84826645 3.53199953 -1.95216435 1.95216435 0 0 Z " fill="#0E0E0E" transform="translate(337,193)"/>
<path d="M0 0 C0.33 1.65 0.66 3.3 1 5 C-2.62326739 6.2077558 -3.64146369 5.54311128 -7 4 C-2.25 0 -2.25 0 0 0 Z " fill="#DADADA" transform="translate(63,447)"/>
<path d="M0 0 C0.33 0.66 0.66 1.32 1 2 C-0.61594832 4.04119788 -2.2856382 6.04072937 -4 8 C-4.66 8 -5.32 8 -6 8 C-6.33 8.66 -6.66 9.32 -7 10 C-7 7 -7 7 -5.46875 5.17578125 C-4.8190625 4.56089844 -4.169375 3.94601562 -3.5 3.3125 C-2.8503125 2.68988281 -2.200625 2.06726563 -1.53125 1.42578125 C-0.77328125 0.72001953 -0.77328125 0.72001953 0 0 Z " fill="#EEEEEE" transform="translate(77,432)"/>
<path d="M0 0 C0.66 0.33 1.32 0.66 2 1 C1 4 1 4 -2.0625 5.6875 C-3.031875 6.120625 -4.00125 6.55375 -5 7 C-3.75023244 3.34683329 -3.32901247 2.21934164 0 0 Z " fill="#0D0D0D" transform="translate(280,304)"/>
<path d="M0 0 C0.66 1.32 1.32 2.64 2 4 C1.34 4 0.68 4 0 4 C-1.38938077 5.96147874 -2.7260411 7.96166576 -4 10 C-4.66 9.34 -5.32 8.68 -6 8 C-4.02 5.36 -2.04 2.72 0 0 Z " fill="#1D1D1D" transform="translate(32,220)"/>
<path d="M0 0 C2 2 2 2 3 5 C1.68 5.99 0.36 6.98 -1 8 C-1.33 5.69 -1.66 3.38 -2 1 C-1.34 0.67 -0.68 0.34 0 0 Z " fill="#EDEDED" transform="translate(203,136)"/>
<path d="M0 0 C0 3 0 3 -1 6 C-3.5625 7.1875 -3.5625 7.1875 -6 8 C-6 5 -6 5 -4.6875 3.61328125 C-3.125 2.40885417 -1.5625 1.20442708 0 0 Z " fill="#292929" transform="translate(260,86)"/>
<path d="M0 0 C2.37948772 0.17625835 3.70225849 0.69719773 5.37890625 2.40234375 C6.62115486 3.90649092 7.81376056 5.45129851 9 7 C8.01 7 7.02 7 6 7 C5.67 6.01 5.34 5.02 5 4 C2.49552484 2.78130071 2.49552484 2.78130071 0 2 C0 1.34 0 0.68 0 0 Z " fill="#202020" transform="translate(338,66)"/>
<path d="M0 0 C0.66 1.32 1.32 2.64 2 4 C0.35 5.65 -1.3 7.3 -3 9 C-2.4140625 2.84765625 -2.4140625 2.84765625 -2 1 C-1.34 0.67 -0.68 0.34 0 0 Z " fill="#0D0D0D" transform="translate(67,403)"/>
<path d="M0 0 C0.99 0.33 1.98 0.66 3 1 C0.525 4.465 0.525 4.465 -2 8 C-3 4 -3 4 -2 1 C-1.34 0.67 -0.68 0.34 0 0 Z " fill="#D7D7D7" transform="translate(28,395)"/>
<path d="M0 0 C1.2065625 0.0309375 1.2065625 0.0309375 2.4375 0.0625 C2.125 2 2.125 2 1.4375 4.0625 C0.4475 4.3925 -0.5425 4.7225 -1.5625 5.0625 C-2.2225 3.7425 -2.8825 2.4225 -3.5625 1.0625 C-2.5625 0.0625 -2.5625 0.0625 0 0 Z " fill="#F4F4F4" transform="translate(451.5625,106.9375)"/>
<path d="M0 0 C1.32 0.66 2.64 1.32 4 2 C3.67 3.65 3.34 5.3 3 7 C1.68 6.01 0.36 5.02 -1 4 C-0.67 2.68 -0.34 1.36 0 0 Z " fill="#EAEAEA" transform="translate(375,96)"/>
<path d="M0 0 C-0.33 1.65 -0.66 3.3 -1 5 C-2.32 5 -3.64 5 -5 5 C-5.66 5.66 -6.32 6.32 -7 7 C-7 6.01 -7 5.02 -7 4 C-2.65714286 0 -2.65714286 0 0 0 Z " fill="#1B1B1B" transform="translate(277,74)"/>
<path d="M0 0 C2.31 1.98 4.62 3.96 7 6 C6.01 6.495 6.01 6.495 5 7 C3.02 5.68 1.04 4.36 -1 3 C-0.67 2.01 -0.34 1.02 0 0 Z " fill="#F6F6F6" transform="translate(401,56)"/>
<path d="M0 0 C1.65 0.33 3.3 0.66 5 1 C4.34 2.98 3.68 4.96 3 7 C1.35 6.67 -0.3 6.34 -2 6 C-0.68 5.67 0.64 5.34 2 5 C1.34 3.35 0.68 1.7 0 0 Z " fill="#121212" transform="translate(319,49)"/>
<path d="M0 0 C3.25543229 0.34879632 4.01873107 1.02133261 6.25 3.5625 C6.8275 4.366875 7.405 5.17125 8 6 C5 6 5 6 3.61328125 4.6875 C2.40885417 3.125 1.20442708 1.5625 0 0 Z M-2 1 C-1.01 1.495 -1.01 1.495 0 2 C-0.99 2.495 -0.99 2.495 -2 3 C-2 2.34 -2 1.68 -2 1 Z " fill="#E5E5E5" transform="translate(371,27)"/>
<path d="M0 0 C0.99 0.99 1.98 1.98 3 3 C2.67 3.99 2.34 4.98 2 6 C0.68 5.67 -0.64 5.34 -2 5 C-1.34 3.35 -0.68 1.7 0 0 Z " fill="#1D1D1D" transform="translate(16,420)"/>
<path d="M0 0 C0.33 1.32 0.66 2.64 1 4 C-2.05263664 4.98120464 -3.94736336 4.98120464 -7 4 C-4.69 2.68 -2.38 1.36 0 0 Z " fill="#E0E0E0" transform="translate(23,256)"/>
<path d="M0 0 C0.66 0 1.32 0 2 0 C1.67 1.98 1.34 3.96 1 6 C-2 6 -2 6 -4 5 C-2.71937515 3.2925002 -1.38232443 1.62626404 0 0 Z " fill="#EFEFEF" transform="translate(166,161)"/>
<path d="M0 0 C0.66 0.33 1.32 0.66 2 1 C1.67 2.32 1.34 3.64 1 5 C-0.32 5.33 -1.64 5.66 -3 6 C-3.33 5.01 -3.66 4.02 -4 3 C-3 1 -3 1 0 0 Z " fill="#F3F3F3" transform="translate(111,153)"/>
<path d="M0 0 C2.0625 0.4375 2.0625 0.4375 4 1 C3.67 1.99 3.34 2.98 3 4 C1.02 4.33 -0.96 4.66 -3 5 C-1.125 1.125 -1.125 1.125 0 0 Z " fill="#111111" transform="translate(265,82)"/>
<path d="M0 0 C0.33 1.32 0.66 2.64 1 4 C0.01 4 -0.98 4 -2 4 C-2.33 4.66 -2.66 5.32 -3 6 C-3.99 6.33 -4.98 6.66 -6 7 C-4.60667426 3.63279613 -3.0210714 2.0140476 0 0 Z " fill="#DFDFDF" transform="translate(249,443)"/>
<path d="M0 0 C-0.66 0 -1.32 0 -2 0 C-1.34 1.32 -0.68 2.64 0 4 C-0.99 4 -1.98 4 -3 4 C-4.6875 2 -4.6875 2 -6 0 C-3.50907189 -1.24546405 -2.58919267 -0.7767578 0 0 Z " fill="#E4E4E4" transform="translate(24,411)"/>
<path d="M0 0 C0.99 0.33 1.98 0.66 3 1 C1.63016497 4.16115776 1.0109362 4.9927092 -2 7 C-1.125 2.25 -1.125 2.25 0 0 Z " fill="#1B1B1B" transform="translate(104,400)"/>
<path d="M0 0 C0.66 0.33 1.32 0.66 2 1 C1.01 2.98 0.02 4.96 -1 7 C-1.99 6.01 -2.98 5.02 -4 4 C-2.68 2.68 -1.36 1.36 0 0 Z " fill="#131313" transform="translate(219,362)"/>
<path d="M0 0 C0.66 0 1.32 0 2 0 C2 0.66 2 1.32 2 2 C3.32 1.67 4.64 1.34 6 1 C6.33 1.99 6.66 2.98 7 4 C6.01 4.33 5.02 4.66 4 5 C4 4.34 4 3.68 4 3 C3.01 3.33 2.02 3.66 1 4 C0.34 3.34 -0.32 2.68 -1 2 C-0.67 1.34 -0.34 0.68 0 0 Z " fill="#F1F1F1" transform="translate(282,320)"/>
<path d="M0 0 C0.144375 0.61875 0.28875 1.2375 0.4375 1.875 C0.93152225 4.03258322 0.93152225 4.03258322 2 6 C0.02 6.66 -1.96 7.32 -4 8 C-4 7.34 -4 6.68 -4 6 C-3.34 6 -2.68 6 -2 6 C-1.34 4.02 -0.68 2.04 0 0 Z " fill="#181818" transform="translate(4,261)"/>
<path d="M0 0 C0.99 0 1.98 0 3 0 C2.67 1.65 2.34 3.3 2 5 C1.01 5 0.02 5 -1 5 C-1 2 -1 2 0 0 Z " fill="#181818" transform="translate(161,199)"/>
<path d="M0 0 C2.475 0.99 2.475 0.99 5 2 C5 2.66 5 3.32 5 4 C5.66 4.33 6.32 4.66 7 5 C3 5 3 5 0 3 C0 2.01 0 1.02 0 0 Z " fill="#E4E4E4" transform="translate(286,194)"/>
<path d="M0 0 C2 3 2 3 2 6 C0 7.6875 0 7.6875 -2 9 C-2.66 8.67 -3.32 8.34 -4 8 C-2.68 5.36 -1.36 2.72 0 0 Z " fill="#CECECE" transform="translate(330,171)"/>
<path d="M0 0 C1.98 0.495 1.98 0.495 4 1 C3.34 2.65 2.68 4.3 2 6 C1.01 5.34 0.02 4.68 -1 4 C-0.67 2.68 -0.34 1.36 0 0 Z " fill="#EDEDED" transform="translate(368,89)"/>
<path d="M0 0 C1.65 0.33 3.3 0.66 5 1 C3.60804085 3.7839183 1.84424221 3.97898997 -1 5 C-1.66 4.34 -2.32 3.68 -3 3 C-2.34 3 -1.68 3 -1 3 C-0.67 2.01 -0.34 1.02 0 0 Z " fill="#E4E4E4" transform="translate(96,393)"/>
<path d="M0 0 C1.98 0.495 1.98 0.495 4 1 C3.34 2.98 2.68 4.96 2 7 C1.01 7 0.02 7 -1 7 C-0.649375 6.401875 -0.29875 5.80375 0.0625 5.1875 C1.33304698 2.89186786 1.33304698 2.89186786 0 0 Z " fill="#DCDCDC" transform="translate(88,381)"/>
<path d="M0 0 C1.67542976 0.28604898 3.34385343 0.61781233 5 1 C4.67 1.99 4.34 2.98 4 4 C3.01 4.33 2.02 4.66 1 5 C1 4.01 1 3.02 1 2 C0.34 1.67 -0.32 1.34 -1 1 C-0.67 0.67 -0.34 0.34 0 0 Z " fill="#121212" transform="translate(149,367)"/>
<path d="M0 0 C0.99 0 1.98 0 3 0 C3 0.66 3 1.32 3 2 C3.66 2.33 4.32 2.66 5 3 C4.01 4.485 4.01 4.485 3 6 C1.5 4.6875 1.5 4.6875 0 3 C0 2.01 0 1.02 0 0 Z " fill="#1F1F1F" transform="translate(129,362)"/>
<path d="M0 0 C0.33 1.65 0.66 3.3 1 5 C0.01 4.67 -0.98 4.34 -2 4 C-2.99 4.495 -2.99 4.495 -4 5 C-4.66 4.34 -5.32 3.68 -6 3 C-2.25 0 -2.25 0 0 0 Z " fill="#232323" transform="translate(317,305)"/>
<path d="M0 0 C0.66 0.99 1.32 1.98 2 3 C1 6 1 6 -1.0625 7.1875 C-1.701875 7.455625 -2.34125 7.72375 -3 8 C-1.125 2.25 -1.125 2.25 0 0 Z " fill="#1A1A1A" transform="translate(132,250)"/>
<path d="M0 0 C1.65 1.65 3.3 3.3 5 5 C4.01 5.66 3.02 6.32 2 7 C1.34 6.67 0.68 6.34 0 6 C-0.6875 3.5 -0.6875 3.5 -1 1 C-0.67 0.67 -0.34 0.34 0 0 Z " fill="#0E0E0E" transform="translate(49,201)"/>
<path d="M0 0 C0.99 0.33 1.98 0.66 3 1 C1.71937515 2.7074998 0.38232443 4.37373596 -1 6 C-1.66 6 -2.32 6 -3 6 C-2.67 4.68 -2.34 3.36 -2 2 C-1.34 2 -0.68 2 0 2 C0 1.34 0 0.68 0 0 Z " fill="#151515" transform="translate(325,177)"/>
<path d="M0 0 C2.475 0.495 2.475 0.495 5 1 C5 1.66 5 2.32 5 3 C5.66 3.33 6.32 3.66 7 4 C6.34 4.66 5.68 5.32 5 6 C3.35 4.02 1.7 2.04 0 0 Z " fill="#EBEBEB" transform="translate(356,81)"/>
<path d="M0 0 C1.32 1.32 2.64 2.64 4 4 C1.69 4.33 -0.62 4.66 -3 5 C-2.01 3.35 -1.02 1.7 0 0 Z " fill="#E3E3E3" transform="translate(348,49)"/>
</svg>
